<svg width="10" height="10" viewBox="0 0 10 10" fill="none" xmlns="http://www.w3.org/2000/svg">
<path fill-rule="evenodd" clip-rule="evenodd" d="M0 5.00001C0 4.69319 0.248731 4.44446 0.555556 4.44446H9.44444C9.75127 4.44446 10 4.69319 10 5.00001C10 5.30684 9.75127 5.55557 9.44444 5.55557H0.555556C0.248731 5.55557 0 5.30684 0 5.00001Z" fill="white"/>
<path fill-rule="evenodd" clip-rule="evenodd" d="M0 5.00001C0 4.69319 0.248731 4.44446 0.555556 4.44446H9.44444C9.75127 4.44446 10 4.69319 10 5.00001C10 5.30684 9.75127 5.55557 9.44444 5.55557H0.555556C0.248731 5.55557 0 5.30684 0 5.00001Z" fill="#4E5D78"/>
<path fill-rule="evenodd" clip-rule="evenodd" d="M4.60718 0.162718C4.82413 -0.0542395 5.17589 -0.0542395 5.39285 0.162718L9.83729 4.60716C10.0543 4.82412 10.0543 5.17588 9.83729 5.39284L5.39285 9.83728C5.17589 10.0542 4.82413 10.0542 4.60718 9.83728C4.39022 9.62033 4.39022 9.26857 4.60718 9.05161L8.65878 5L4.60718 0.948393C4.39022 0.731435 4.39022 0.379676 4.60718 0.162718Z" fill="white"/>
<path fill-rule="evenodd" clip-rule="evenodd" d="M4.60718 0.162718C4.82413 -0.0542395 5.17589 -0.0542395 5.39285 0.162718L9.83729 4.60716C10.0543 4.82412 10.0543 5.17588 9.83729 5.39284L5.39285 9.83728C5.17589 10.0542 4.82413 10.0542 4.60718 9.83728C4.39022 9.62033 4.39022 9.26857 4.60718 9.05161L8.65878 5L4.60718 0.948393C4.39022 0.731435 4.39022 0.379676 4.60718 0.162718Z" fill="#4E5D78"/>
</svg>
