<svg width="12" height="8" viewBox="0 0 12 8" fill="none" xmlns="http://www.w3.org/2000/svg">
<path d="M12 1.58763C12 1.48711 11.9599 1.3982 11.8798 1.32088L11.2786 0.74098C11.1984 0.66366 11.1062 0.625 11.002 0.625C10.8978 0.625 10.8056 0.66366 10.7255 0.74098L6 5.29897L1.27455 0.74098C1.19439 0.66366 1.1022 0.625 0.997996 0.625C0.893788 0.625 0.801603 0.66366 0.721443 0.74098L0.12024 1.32088C0.0400802 1.3982 0 1.48711 0 1.58763C0 1.68814 0.0400802 1.77706 0.12024 1.85438L5.72345 7.25902C5.80361 7.33634 5.89579 7.375 6 7.375C6.10421 7.375 6.19639 7.33634 6.27655 7.25902L11.8798 1.85438C11.9599 1.77706 12 1.68814 12 1.58763Z" fill="white"/>
<path d="M12 1.58763C12 1.48711 11.9599 1.3982 11.8798 1.32088L11.2786 0.74098C11.1984 0.66366 11.1062 0.625 11.002 0.625C10.8978 0.625 10.8056 0.66366 10.7255 0.74098L6 5.29897L1.27455 0.74098C1.19439 0.66366 1.1022 0.625 0.997996 0.625C0.893788 0.625 0.801603 0.66366 0.721443 0.74098L0.12024 1.32088C0.0400802 1.3982 0 1.48711 0 1.58763C0 1.68814 0.0400802 1.77706 0.12024 1.85438L5.72345 7.25902C5.80361 7.33634 5.89579 7.375 6 7.375C6.10421 7.375 6.19639 7.33634 6.27655 7.25902L11.8798 1.85438C11.9599 1.77706 12 1.68814 12 1.58763Z" fill="#4E5D78"/>
</svg>
