<svg width="16" height="14" viewBox="0 0 16 14" fill="none" xmlns="http://www.w3.org/2000/svg">
<path d="M2.2624 13.9845L2.2464 14L2.2296 13.9845H0.7936C0.583051 13.9843 0.381197 13.9029 0.232392 13.7582C0.0835856 13.6136 -1.06764e-07 13.4175 0 13.213V0.771476C0.00146404 0.567441 0.0855202 0.372156 0.23401 0.227805C0.3825 0.0834545 0.583504 0.00162736 0.7936 0H15.2064C15.6448 0 16 0.345727 16 0.771476V13.213C15.9985 13.417 15.9145 13.6123 15.766 13.7567C15.6175 13.901 15.4165 13.9828 15.2064 13.9845H2.2624ZM14.4 9.32297V1.55383H1.6V12.4306L9.6 4.66149L14.4 9.32297ZM14.4 11.5201L9.6 6.8586L3.8624 12.4306H14.4V11.5201ZM4.8 6.21532C4.37565 6.21532 3.96869 6.05161 3.66863 5.76021C3.36857 5.46881 3.2 5.07359 3.2 4.66149C3.2 4.24939 3.36857 3.85416 3.66863 3.56276C3.96869 3.27136 4.37565 3.10766 4.8 3.10766C5.22435 3.10766 5.63131 3.27136 5.93137 3.56276C6.23143 3.85416 6.4 4.24939 6.4 4.66149C6.4 5.07359 6.23143 5.46881 5.93137 5.76021C5.63131 6.05161 5.22435 6.21532 4.8 6.21532Z" fill="white"/>
<path d="M2.2624 13.9845L2.2464 14L2.2296 13.9845H0.7936C0.583051 13.9843 0.381197 13.9029 0.232392 13.7582C0.0835856 13.6136 -1.06764e-07 13.4175 0 13.213V0.771476C0.00146404 0.567441 0.0855202 0.372156 0.23401 0.227805C0.3825 0.0834545 0.583504 0.00162736 0.7936 0H15.2064C15.6448 0 16 0.345727 16 0.771476V13.213C15.9985 13.417 15.9145 13.6123 15.766 13.7567C15.6175 13.901 15.4165 13.9828 15.2064 13.9845H2.2624ZM14.4 9.32297V1.55383H1.6V12.4306L9.6 4.66149L14.4 9.32297ZM14.4 11.5201L9.6 6.8586L3.8624 12.4306H14.4V11.5201ZM4.8 6.21532C4.37565 6.21532 3.96869 6.05161 3.66863 5.76021C3.36857 5.46881 3.2 5.07359 3.2 4.66149C3.2 4.24939 3.36857 3.85416 3.66863 3.56276C3.96869 3.27136 4.37565 3.10766 4.8 3.10766C5.22435 3.10766 5.63131 3.27136 5.93137 3.56276C6.23143 3.85416 6.4 4.24939 6.4 4.66149C6.4 5.07359 6.23143 5.46881 5.93137 5.76021C5.63131 6.05161 5.22435 6.21532 4.8 6.21532Z" fill="#4E5D78"/>
</svg>
