<svg width="16" height="16" viewBox="0 0 16 16" fill="none" xmlns="http://www.w3.org/2000/svg">
<path d="M6.39976 0H9.59976C11.2971 0 12.925 0.691573 14.1252 1.92258C15.3255 3.15359 15.9998 4.82319 15.9998 6.5641C15.9998 8.30501 15.3255 9.97462 14.1252 11.2056C12.925 12.4366 11.2971 13.1282 9.59976 13.1282V16C5.59976 14.359 -0.000244141 11.8974 -0.000244141 6.5641C-0.000244141 4.82319 0.67404 3.15359 1.87427 1.92258C3.07451 0.691573 4.70237 0 6.39976 0Z" fill="#377DFF"/>
<path d="M11.693 5.53859C11.693 6.51785 11.304 7.457 10.6115 8.14945C9.91907 8.84189 8.97992 9.2309 8.00066 9.2309C7.0214 9.2309 6.08224 8.84189 5.3898 8.14945C4.69736 7.457 4.30835 6.51785 4.30835 5.53859L5.78527 5.53859C5.78527 6.12615 6.01868 6.68964 6.43414 7.1051C6.84961 7.52057 7.4131 7.75397 8.00066 7.75397C8.58821 7.75397 9.15171 7.52057 9.56717 7.1051C9.98264 6.68964 10.216 6.12615 10.216 5.53859H11.693Z" fill="white"/>
</svg>
