<svg width="16" height="10" viewBox="0 0 16 10" fill="none" xmlns="http://www.w3.org/2000/svg">
<path d="M16 1.7835C16 1.64948 15.9466 1.53093 15.8397 1.42784L15.0381 0.654639C14.9312 0.551546 14.8083 0.5 14.6693 0.5C14.5304 0.5 14.4075 0.551546 14.3006 0.654639L8 6.73196L1.6994 0.654639C1.59252 0.551546 1.46961 0.5 1.33066 0.5C1.19172 0.5 1.0688 0.551546 0.961924 0.654639L0.160321 1.42784C0.0534402 1.53093 0 1.64948 0 1.7835C0 1.91753 0.0534402 2.03608 0.160321 2.13918L7.63126 9.34536C7.73814 9.44845 7.86106 9.5 8 9.5C8.13894 9.5 8.26186 9.44845 8.36874 9.34536L15.8397 2.13918C15.9466 2.03608 16 1.91753 16 1.7835Z" fill="white"/>
<path d="M16 1.7835C16 1.64948 15.9466 1.53093 15.8397 1.42784L15.0381 0.654639C14.9312 0.551546 14.8083 0.5 14.6693 0.5C14.5304 0.5 14.4075 0.551546 14.3006 0.654639L8 6.73196L1.6994 0.654639C1.59252 0.551546 1.46961 0.5 1.33066 0.5C1.19172 0.5 1.0688 0.551546 0.961924 0.654639L0.160321 1.42784C0.0534402 1.53093 0 1.64948 0 1.7835C0 1.91753 0.0534402 2.03608 0.160321 2.13918L7.63126 9.34536C7.73814 9.44845 7.86106 9.5 8 9.5C8.13894 9.5 8.26186 9.44845 8.36874 9.34536L15.8397 2.13918C15.9466 2.03608 16 1.91753 16 1.7835Z" fill="#4E5D78"/>
</svg>
