<svg width="14" height="16" viewBox="0 0 14 16" fill="none" xmlns="http://www.w3.org/2000/svg">
<path d="M10.1111 0L14 4V15.1944C14 15.6392 13.6539 16 13.2277 16H0.772333C0.346111 16 0 15.636 0 15.2064V0.7936C0 0.3552 0.347667 0 0.777 0H10.1111ZM9.5 1.5H1.5V14.5H12.5V4.5H9.5V1.5ZM7.77778 6.4V10.4H7V6.4H7.77778ZM6.22222 6.4V7.2H4.66667C4.23733 7.2 3.88889 7.5584 3.88889 8V8.8C3.88889 9.2416 4.23733 9.6 4.66667 9.6H5.44444V8.8H4.66667V8H6.22222V9.6C6.22222 10.0416 5.87378 10.4 5.44444 10.4H4.66667C3.80722 10.4 3.11111 9.684 3.11111 8.8V8C3.11111 7.116 3.80722 6.4 4.66667 6.4H6.22222ZM10.8889 6.4V7.2H9.33333V8H10.8889V8.8H9.33333V10.4H8.55556V6.4H10.8889Z" fill="white"/>
<path d="M10.1111 0L14 4V15.1944C14 15.6392 13.6539 16 13.2277 16H0.772333C0.346111 16 0 15.636 0 15.2064V0.7936C0 0.3552 0.347667 0 0.777 0H10.1111ZM9.5 1.5H1.5V14.5H12.5V4.5H9.5V1.5ZM7.77778 6.4V10.4H7V6.4H7.77778ZM6.22222 6.4V7.2H4.66667C4.23733 7.2 3.88889 7.5584 3.88889 8V8.8C3.88889 9.2416 4.23733 9.6 4.66667 9.6H5.44444V8.8H4.66667V8H6.22222V9.6C6.22222 10.0416 5.87378 10.4 5.44444 10.4H4.66667C3.80722 10.4 3.11111 9.684 3.11111 8.8V8C3.11111 7.116 3.80722 6.4 4.66667 6.4H6.22222ZM10.8889 6.4V7.2H9.33333V8H10.8889V8.8H9.33333V10.4H8.55556V6.4H10.8889Z" fill="#4E5D78"/>
</svg>
